<?xml version="1.0" standalone="no"?>
<!DOCTYPE svg PUBLIC "-//W3C//DTD SVG 20010904//EN"
 "http://www.w3.org/TR/2001/REC-SVG-20010904/DTD/svg10.dtd">
<svg version="1.0" xmlns="http://www.w3.org/2000/svg"
 width="225.000000pt" height="225.000000pt" viewBox="0 0 225.000000 225.000000"
 preserveAspectRatio="xMidYMid meet">

<g transform="translate(0.000000,225.000000) scale(0.100000,-0.100000)"
fill="#000000" stroke="none">
<path d="M821 1654 c-135 -49 -230 -164 -231 -280 0 -29 9 -82 21 -118 11 -37
31 -143 44 -237 48 -330 97 -439 200 -439 62 0 90 30 165 180 59 118 74 140
93 140 12 0 27 -4 33 -8 6 -4 41 -66 77 -138 74 -147 99 -174 161 -174 48 0
88 24 121 72 55 81 79 170 105 392 11 93 27 196 36 230 31 118 -2 225 -96 309
-72 65 -144 90 -240 85 -56 -3 -89 -11 -130 -32 l-54 -27 -56 27 c-70 35 -182
43 -249 18z m220 -64 c39 -20 40 -22 25 -43 -47 -65 -85 -183 -70 -220 15 -40
54 -9 54 43 1 78 66 172 151 215 133 68 295 21 368 -107 41 -72 45 -108 22
-208 -11 -47 -27 -150 -35 -228 -33 -300 -103 -443 -201 -406 -9 4 -47 69 -86
145 -74 149 -97 174 -157 172 -49 -2 -72 -29 -141 -170 -62 -126 -92 -160
-130 -148 -55 17 -94 130 -127 360 -13 94 -34 206 -46 250 -34 126 -34 152 -1
215 71 134 245 195 374 130z"/>
<path d="M837 1565 c-78 -20 -147 -100 -147 -171 0 -39 21 -24 36 25 25 85 84
124 179 119 66 -3 84 2 63 19 -22 17 -81 21 -131 8z"/>
<path d="M1261 1557 c-25 -13 -26 -34 -1 -29 61 12 103 13 133 3 41 -14 103
-78 113 -116 3 -14 13 -25 21 -25 21 0 9 44 -25 94 -50 73 -171 110 -241 73z"/>
</g>
</svg>
